<?xml version="1.0" encoding="UTF-8" standalone="no" ?>
<!DOCTYPE svg PUBLIC "-//W3C//DTD SVG 1.1//EN" "http://www.w3.org/Graphics/SVG/1.1/DTD/svg11.dtd">
<svg xmlns="http://www.w3.org/2000/svg" xmlns:xlink="http://www.w3.org/1999/xlink" version="1.1" width="500" height="500" viewBox="0 0 500 500" xml:space="preserve">
<desc>Created with Fabric.js 5.3.0</desc>
<defs>
</defs>
<g transform="matrix(1 0 0 1 340.1611774889 191.2891333166)" id="Fu1verJRQE8-wAy50jxnv"  >
<g style=""   >
		<g transform="matrix(1 0 0 1 -10.9999991308 -11.8734780301)" id="TIUWlKX0Ldbo4WB7Nd8B8"  >
<path style="stroke: rgb(0,0,0); stroke-width: 1; stroke-dasharray: none; stroke-linecap: butt; stroke-dashoffset: 0; stroke-linejoin: miter; stroke-miterlimit: 4; fill: none; fill-rule: nonzero; opacity: 1;"  transform=" translate(-6.79852, -6.79852)" d="M 6.79852 0 C 10.5513 0 13.59704 3.04574 13.59704 6.79852 C 13.59704 10.5513 10.5513 13.59704 6.79852 13.59704 C 3.04574 13.59704 0 10.5513 0 6.79852 C 0 3.04574 3.04574 0 6.79852 0 z" stroke-linecap="round" />
</g>
		<g transform="matrix(1 0 0 1 0 0)" id="Xg3vtf27ei5v8U8TwB1V_"  >
<g style=""   >
		<g transform="matrix(1 0 0 1 11.0000008692 -11.8734780301)" id="INWqP0wMySlOp6BzKlLTT"  >
<path style="stroke: rgb(0,0,0); stroke-width: 1; stroke-dasharray: none; stroke-linecap: butt; stroke-dashoffset: 0; stroke-linejoin: miter; stroke-miterlimit: 4; fill: none; fill-rule: nonzero; opacity: 1;"  transform=" translate(-6.79852, -6.79852)" d="M 6.79852 0 C 10.5513 0 13.59704 3.04574 13.59704 6.79852 C 13.59704 10.5513 10.5513 13.59704 6.79852 13.59704 C 3.04574 13.59704 0 10.5513 0 6.79852 C 0 3.04574 3.04574 0 6.79852 0 z" stroke-linecap="round" />
</g>
		<g transform="matrix(1 0 0 1 -10.9999991308 -11.6724603383)" id="KBDIKgNDYJt4vdBBdT21F"  >
<path style="stroke: rgb(0,0,0); stroke-width: 0; stroke-dasharray: none; stroke-linecap: butt; stroke-dashoffset: 0; stroke-linejoin: miter; stroke-miterlimit: 4; fill: rgb(0,0,0); fill-rule: nonzero; opacity: 1;"  transform=" translate(-2.47219, -2.47219)" d="M 2.47219 0 C 3.8368399999999996 0 4.94438 1.10754 4.94438 2.47219 C 4.94438 3.8368399999999996 3.8368399999999996 4.94438 2.47219 4.94438 C 1.10754 4.94438 0 3.8368399999999996 0 2.47219 C 0 1.10754 1.10754 0 2.47219 0 z" stroke-linecap="round" />
</g>
		<g transform="matrix(1 0 0 1 11.0000008692 -11.6724603383)" id="-A6yM7XuSaDGbLvo0OBkU"  >
<path style="stroke: rgb(0,0,0); stroke-width: 0; stroke-dasharray: none; stroke-linecap: butt; stroke-dashoffset: 0; stroke-linejoin: miter; stroke-miterlimit: 4; fill: rgb(0,0,0); fill-rule: nonzero; opacity: 1;"  transform=" translate(-2.47219, -2.47219)" d="M 2.47219 0 C 3.8368399999999996 0 4.94438 1.10754 4.94438 2.47219 C 4.94438 3.8368399999999996 3.8368399999999996 4.94438 2.47219 4.94438 C 1.10754 4.94438 0 3.8368399999999996 0 2.47219 C 0 1.10754 1.10754 0 2.47219 0 z" stroke-linecap="round" />
</g>
		<g transform="matrix(1 0 0 1 0 14.5516846967)" id="k1uVQZ9RhIyQlJ18ikpB3"  >
<path style="stroke: rgb(0,0,0); stroke-width: 1; stroke-dasharray: none; stroke-linecap: butt; stroke-dashoffset: 0; stroke-linejoin: miter; stroke-miterlimit: 4; fill: rgb(255,255,255); fill-opacity: 0; fill-rule: nonzero; opacity: 1;"  transform=" translate(0, -0.0000033333)" d="M -18.29852 -4.12031 C -18.29852 -4.12031 -0.24288999999999916 14.4211 18.29852 -4.12031" stroke-linecap="round" />
</g>
</g>
</g>
</g>
</g>
<g transform="matrix(-1 0 0 1 374.2656198926 346.3893436159)" id="g6LQQvSWkdMwOW5V2pCBe"  >
<path style="stroke: rgb(0,0,0); stroke-width: 1; stroke-dasharray: none; stroke-linecap: butt; stroke-dashoffset: 0; stroke-linejoin: miter; stroke-miterlimit: 4; fill: rgb(255,255,255); fill-opacity: 0; fill-rule: nonzero; opacity: 1;"  transform=" translate(-0.000005, -0.000005)" d="M 32.70818 -32.45702 L -32.708169999999996 32.45703" stroke-linecap="round" />
</g>
<g transform="matrix(1 0 0 1 308.3492688723 346.3893414325)" id="GGkxPpjzwypFFs3eorv8o"  >
<path style="stroke: rgb(0,0,0); stroke-width: 1; stroke-dasharray: none; stroke-linecap: butt; stroke-dashoffset: 0; stroke-linejoin: miter; stroke-miterlimit: 4; fill: rgb(255,255,255); fill-opacity: 0; fill-rule: nonzero; opacity: 1;"  transform=" translate(-0.000005, -0.000005)" d="M 32.70818 -32.45702 L -32.708169999999996 32.45703" stroke-linecap="round" />
</g>
<g transform="matrix(-1 0 0 1 366.1719848926 259.5633006458)" id="ic-ubnYdfxo3hYgEk0uFR"  >
<path style="stroke: rgb(0,0,0); stroke-width: 1; stroke-dasharray: none; stroke-linecap: butt; stroke-dashoffset: 0; stroke-linejoin: miter; stroke-miterlimit: 4; fill: rgb(255,255,255); fill-opacity: 0; fill-rule: nonzero; opacity: 1;"  transform=" translate(0, -0.000005)" d="M 24.61454 -19.7775 L -24.61454 19.777510000000003" stroke-linecap="round" />
</g>
<g transform="matrix(1 0 0 1 316.9429029884 259.5632987361)" id="unsVDFZyfAJ1N7mUjb9AU"  >
<path style="stroke: rgb(0,0,0); stroke-width: 1; stroke-dasharray: none; stroke-linecap: butt; stroke-dashoffset: 0; stroke-linejoin: miter; stroke-miterlimit: 4; fill: rgb(255,255,255); fill-opacity: 0; fill-rule: nonzero; opacity: 1;"  transform=" translate(0, -0.000005)" d="M 24.61454 -19.7775 L -24.61454 19.777510000000003" stroke-linecap="round" />
</g>
<g transform="matrix(1 0 0 1 341.5574448926 270.6195634747)" id="CtZKinsgk0q0yZsikxEIe"  >
<path style="stroke: rgb(0,0,0); stroke-width: 1; stroke-dasharray: none; stroke-linecap: butt; stroke-dashoffset: 0; stroke-linejoin: miter; stroke-miterlimit: 4; fill: rgb(255,255,255); fill-opacity: 0; fill-rule: nonzero; opacity: 1;"  transform=" translate(0, 0.000005)" d="M 0 -42.81276 L 0 42.81275000000001" stroke-linecap="round" />
</g>
<g transform="matrix(1 0 0 1 341.5574448926 191.8871553492)" id="pQy0qghqta6cnTRKU8n-f"  >
<path style="stroke: rgb(0,0,0); stroke-width: 1; stroke-dasharray: none; stroke-linecap: butt; stroke-dashoffset: 0; stroke-linejoin: miter; stroke-miterlimit: 4; fill: none; fill-rule: nonzero; opacity: 1;"  transform=" translate(-34.91965, -34.91965)" d="M 34.91965 0 C 54.195299999999996 0 69.8393 15.644 69.8393 34.91965 C 69.8393 54.195299999999996 54.195299999999996 69.8393 34.91965 69.8393 C 15.643999999999998 69.8393 0 54.195299999999996 0 34.91965 C 0 15.643999999999998 15.644 0 34.91965 0 z" stroke-linecap="round" />
</g>
<g transform="matrix(1 0 0 1 341.8074448926 120.6885648039)" id="5UAxZ7BOWXeoBjdGiykCV"  >
<path style="stroke: rgb(0,0,0); stroke-width: 4; stroke-dasharray: none; stroke-linecap: butt; stroke-dashoffset: 0; stroke-linejoin: miter; stroke-miterlimit: 4; fill: rgb(255,255,255); fill-opacity: 0; fill-rule: nonzero; opacity: 1;"  transform=" translate(0, 0)" d="M -0.25 35.77894 L 0.25 -35.77894" stroke-linecap="round" />
</g>
<g transform="matrix(1 0 0 1 220.7523018627 250)" id="UpNOhgKc9WUMLQxdRI_Hr"  >
<g style=""   >
		<g transform="matrix(-1 0 0 1 -82.7440217554 140.383579656)" id="ucnf1YH09RTxG8Y1jgJ0E"  >
<path style="stroke: rgb(0,0,0); stroke-width: 10; stroke-dasharray: none; stroke-linecap: butt; stroke-dashoffset: 0; stroke-linejoin: miter; stroke-miterlimit: 4; fill: rgb(255,255,255); fill-opacity: 0; fill-rule: nonzero; opacity: 1;"  transform=" translate(0.000005, 0.000005)" d="M -40.48208 -32.44747 L 40.48207 32.44746" stroke-linecap="round" />
</g>
		<g transform="matrix(1 0 0 1 4.2893527811 140.3835786486)" id="f6CVXRZwOp7T_4009-jyC"  >
<path style="stroke: rgb(0,0,0); stroke-width: 10; stroke-dasharray: none; stroke-linecap: butt; stroke-dashoffset: 0; stroke-linejoin: miter; stroke-miterlimit: 4; fill: rgb(255,255,255); fill-opacity: 0; fill-rule: nonzero; opacity: 1;"  transform=" translate(0.000005, 0.000005)" d="M -40.48208 -32.44747 L 40.48207 32.44746" stroke-linecap="round" />
</g>
		<g transform="matrix(1 0 0 1 -39.2619467554 -30.371219656)" id="as_OsEg1Q1h-JVGm5Bwkk"  >
<path style="stroke: rgb(0,0,0); stroke-width: 10; stroke-dasharray: none; stroke-linecap: butt; stroke-dashoffset: 0; stroke-linejoin: miter; stroke-miterlimit: 4; fill: rgb(255,255,255); fill-opacity: 0; fill-rule: nonzero; opacity: 1;"  transform=" translate(0, -0.000005)" d="M 0 142.45983 L 0 -142.45981999999998" stroke-linecap="round" />
</g>
		<g transform="matrix(1 0 0 1 41.982075 -168.0903751961)" id="lCdpzE5jK4gmT3CONd8zE"  >
<path style="stroke: rgb(0,0,0); stroke-width: 10; stroke-dasharray: none; stroke-linecap: butt; stroke-dashoffset: 0; stroke-linejoin: miter; stroke-miterlimit: 4; fill: rgb(255,255,255); fill-opacity: 0; fill-rule: nonzero; opacity: 1;"  transform=" translate(0, 0)" d="M -81.24402 0 L 81.24402 0" stroke-linecap="round" />
</g>
</g>
</g>
</svg>